{"title":"Lil Wayne + Charlie Puth - Nothing But Trouble (2015)","uid":12363425,"size":97932192,"categoryP":"video","categoryS":"music_videos","magnet":"?xt=urn:btih:529464db3dff620f57f81e284a03fe54fe3f508b&amp;dn=Lil+Wayne+%2B+Charlie+Puth+-+Nothing+But+Trouble+%282015%29&amp;tr=udp%3A%2F%2Ftracker.openbittorrent.com%3A80&amp;tr=udp%3A%2F%2Fopen.demonii.com%3A1337&amp;tr=udp%3A%2F%2Ftracker.coppersurfer.tk%3A6969&amp;tr=udp%3A%2F%2Fexodus.desync.com%3A6969","seeders":1,"leechers":0,"uploader":"MeRaDil","files":1,"time":1441559927,"description":"LIL WAYNE &amp; CHARLIE PUTH - NOTHING BUT TROUBLE\n\n &lt;a href=&quot;\nhttp://gifyu.com/images/LWCP-1.png&quot; rel=&quot;nofollow&quot; target=&quot;_NEW&quot;&gt;\nhttp://gifyu.com/images/LWCP-1.png&lt;/a&gt;\n\n\nMEDIA INFO\nGeneral\nLil Wayne &amp; Charlie Puth - Nothing But Trouble\nFormat                                   : MPEG-4\nFormat profile                           : Base Media\nCodec ID                                 : isom\nFile size                                : 93.4 MiB\nDuration                                 : 3mn 34s\nOverall bit rate                         : 3 649 Kbps\nMusicVid name                            : Nothing But Trouble\nAlbum                                    : 808 The Music\nPerformer                                : Lil Wayne &amp; Charlie Puth\nGenre                                    : HipHop\nContentType                              : Music Video\nRecorded date                            : 2015\nComment                                  : from the documentary 808 The Film\nMake                                     : MeRaDil\nRelease date                             : USA - august 24 - 2015\nPart_ID                                  : Nothing But Trouble\n &lt;a href=&quot;\nhttps://thepiratebay.la/user/MeRaDil&quot; rel=&quot;nofollow&quot; target=&quot;_NEW&quot;&gt;\nhttps://thepiratebay.la/user/MeRaDil&lt;/a&gt;\n\nVideo\nID                                       : 1\nFormat                                   : AVC\nFormat/Info                              : Advanced Video Codec\nFormat profile                           : &lt;a class=&quot;__cf_email__&quot; href=&quot;/cdn-cgi/l/email-protection&quot; data-cfemail=&quot;e7af8e808fa7abd3c9d7&quot;&gt;[email&amp;#160;protected]&lt;/a&gt;&lt;script data-cfhash='f9e31' type=&quot;text/javascript&quot;&gt;\n/* &lt;![CDATA[ */!function(){try{var t=&quot;currentScript&quot;in document?document.currentScript:function(){for(var t=document.getElementsByTagName(&quot;script&quot;),e=t.length;e--;)if(t[e].getAttribute(&quot;data-cfhash&quot;))return t[e]}();if(t&amp;&amp;t.previousSibling){var e,r,n,i,c=t.previousSibling,a=c.getAttribute(&quot;data-cfemail&quot;);if(a){for(e=&quot;&quot;,r=parseInt(a.substr(0,2),16),n=2;a.length-n;n+=2)i=parseInt(a.substr(n,2),16)^r,e+=String.fromCharCode(i);e=document.createTextNode(e),c.parentNode.replaceChild(e,c)}t.parentNode.removeChild(t);}}catch(u){}}()/* ]]&gt; */&lt;/script&gt;\nFormat settings, CABAC                   : Yes\nFormat settings, ReFrames                : 2 frames\nCodec ID                                 : avc1\nCodec ID/Info                            : Advanced Video Coding\nDuration                                 : 3mn 34s\nBit rate                                 : 3 381 Kbps\nWidth                                    : 1 920 pixels\nHeight                                   : 1 080 pixels\nDisplay aspect ratio                     : 16:9\nFrame rate mode                          : Variable\nFrame rate                               : 23.976 fps\nMinimum frame rate                       : 23.974 fps\nMaximum frame rate                       : 23.981 fps\nColor space                              : YUV\nChroma subsampling                       : 4:2:0\nBit depth                                : 8 bits\nScan type                                : Progressive\nBits/(Pixel*Frame)                       : 0.068\nStream size                              : 86.5 MiB (93%)\n\nAudio\nID                                       : 2\nFormat                                   : AAC\nFormat/Info                              : Advanced Audio Codec\nFormat profile                           : LC\nCodec ID                                 : 40\nDuration                                 : 3mn 34s\nBit rate mode                            : Constant\nBit rate                                 : 256 Kbps\nChannel(s)                               : 2 channels\nChannel positions                        : Front: L R\nSampling rate                            : 44.1 KHz\nCompression mode                         : Lossy\nStream size                              : 6.55 MiB (7%)\n\nLil Wayne * Charlie Puth * Promo * HipHop/Pop * 808 The Film","torrent":{"xt":"urn:btih:529464db3dff620f57f81e284a03fe54fe3f508b","amp;dn":"Lil+Wayne+%2B+Charlie+Puth+-+Nothing+But+Trouble+%282015%29","amp;tr":["udp%3A%2F%2Ftracker.openbittorrent.com%3A80","udp%3A%2F%2Fopen.demonii.com%3A1337","udp%3A%2F%2Ftracker.coppersurfer.tk%3A6969","udp%3A%2F%2Fexodus.desync.com%3A6969"],"infoHash":"529464db3dff620f57f81e284a03fe54fe3f508b","infoHashBuffer":{"type":"Buffer","data":[82,148,100,219,61,255,98,15,87,248,30,40,74,3,254,84,254,63,80,139]},"announce":[],"urlList":[]}}